HIERARCHY
ROOT hip
{
  OFFSET 0 0 0
  CHANNELS 6 Xposition Yposition Zposition Zrotation Yrotation Xrotation
  JOINT abdomen
  {
    OFFSET 0 20.6881 -0.73152
    CHANNELS 3 Zrotation Xrotation Yrotation
    JOINT chest
    {
      OFFSET 0 11.7043 -0.48768
      CHANNELS 3 Zrotation Xrotation Yrotation
      JOINT neck
      {
        OFFSET 0 22.1894 -2.19456
        CHANNELS 3 Zrotation Xrotation Yrotation
        JOINT head
        {
          OFFSET -0.24384 7.07133 1.2192
          CHANNELS 3 Zrotation Xrotation Yrotation
          JOINT leftEye
          {
            OFFSET 4.14528 8.04674 8.04672
            CHANNELS 3 Zrotation Xrotation Yrotation
            End Site
            {
              OFFSET 1 0 0
            }
          }
          JOINT rightEye
          {
            OFFSET -3.6576 8.04674 8.04672
            CHANNELS 3 Zrotation Xrotation Yrotation
            End Site
            {
              OFFSET 1 0 0
            }
          }
        }
      }
      JOINT rCollar
      {
        OFFSET -2.68224 19.2634 -4.8768
        CHANNELS 3 Zrotation Xrotation Yrotation
        JOINT rShldr
        {
          OFFSET -8.77824 -1.95073 1.46304
          CHANNELS 3 Zrotation Xrotation Yrotation
          JOINT rForeArm
          {
            OFFSET -28.1742 -1.7115 0.48768
            CHANNELS 3 Zrotation Xrotation Yrotation
            JOINT rHand
            {
              OFFSET -22.5879 0.773209 7.07136
              CHANNELS 3 Zrotation Xrotation Yrotation
              JOINT rThumb1
              {
                OFFSET -1.2192 -0.487915 3.41376
                CHANNELS 3 Zrotation Xrotation Yrotation
                JOINT rThumb2
                {
                  OFFSET -3.37035 -0.52449 3.41376
                  CHANNELS 3 Zrotation Xrotation Yrotation
                  End Site
                  {
                    OFFSET -1.78271 -1.18214 1.43049
                  }
                }
              }
              JOINT rIndex1
              {
                OFFSET -7.75947 0.938293 5.60832
                CHANNELS 3 Zrotation Xrotation Yrotation
                JOINT rIndex2
                {
                  OFFSET -2.54057 -0.884171 1.56538
                  CHANNELS 3 Zrotation Xrotation Yrotation
                  End Site
                  {
                    OFFSET -1.62519 -0.234802 1.16502
                  }
                }
              }
              JOINT rMid1
              {
                OFFSET -8.24714 1.18213 3.41376
                CHANNELS 3 Zrotation Xrotation Yrotation
                JOINT rMid2
                {
                  OFFSET -3.10165 -0.590103 1.0647
                  CHANNELS 3 Zrotation Xrotation Yrotation
                  End Site
                  {
                    OFFSET -2.48547 -0.328903 0.83742
                  }
                }
              }
              JOINT rRing1
              {
                OFFSET -8.82822 0.546677 1.51678
                CHANNELS 3 Zrotation Xrotation Yrotation
                JOINT rRing2
                {
                  OFFSET -2.60934 -0.819778 -0.0198488
                  CHANNELS 3 Zrotation Xrotation Yrotation
                  End Site
                  {
                    OFFSET -2.33842 -0.294052 0.168128
                  }
                }
              }
              JOINT rPinky1
              {
                OFFSET -8.27202 -0.0477905 -0.4584
                CHANNELS 3 Zrotation Xrotation Yrotation
                JOINT rPinky2
                {
                  OFFSET -1.82734 -0.647385 -0.700984
                  CHANNELS 3 Zrotation Xrotation Yrotation
                  End Site
                  {
                    OFFSET -1.69225 -0.51767 -0.607171
                  }
                }
              }
            }
          }
        }
      }
      JOINT lCollar
      {
        OFFSET 2.68224 19.2634 -4.8768
        CHANNELS 3 Zrotation Xrotation Yrotation
        JOINT lShldr
        {
          OFFSET 8.77824 -1.95073 1.46304
          CHANNELS 3 Zrotation Xrotation Yrotation
          JOINT lForeArm
          {
            OFFSET 28.1742 -1.7115 0.48768
            CHANNELS 3 Zrotation Xrotation Yrotation
            JOINT lHand
            {
              OFFSET 22.5879 0.773209 7.07136
              CHANNELS 3 Zrotation Xrotation Yrotation
              JOINT lThumb1
              {
                OFFSET 1.2192 -0.487915 3.41376
                CHANNELS 3 Zrotation Xrotation Yrotation
                JOINT lThumb2
                {
                  OFFSET 3.37035 -0.52449 3.41376
                  CHANNELS 3 Zrotation Xrotation Yrotation
                  End Site
                  {
                    OFFSET 1.78271 -1.18214 1.43049
                  }
                }
              }
              JOINT lIndex1
              {
                OFFSET 7.75947 0.938293 5.60832
                CHANNELS 3 Zrotation Xrotation Yrotation
                JOINT lIndex2
                {
                  OFFSET 2.54057 -0.884171 1.56538
                  CHANNELS 3 Zrotation Xrotation Yrotation
                  End Site
                  {
                    OFFSET 1.62519 -0.234802 1.16502
                  }
                }
              }
              JOINT lMid1
              {
                OFFSET 8.24714 1.18213 3.41376
                CHANNELS 3 Zrotation Xrotation Yrotation
                JOINT lMid2
                {
                  OFFSET 3.10165 -0.590103 1.0647
                  CHANNELS 3 Zrotation Xrotation Yrotation
                  End Site
                  {
                    OFFSET 2.48547 -0.328903 0.83742
                  }
                }
              }
              JOINT lRing1
              {
                OFFSET 8.82822 0.546677 1.51678
                CHANNELS 3 Zrotation Xrotation Yrotation
                JOINT lRing2
                {
                  OFFSET 2.60934 -0.819778 -0.0198488
                  CHANNELS 3 Zrotation Xrotation Yrotation
                  End Site
                  {
                    OFFSET 2.33842 -0.294052 0.168128
                  }
                }
              }
              JOINT lPinky1
              {
                OFFSET 8.27202 -0.0477905 -0.4584
                CHANNELS 3 Zrotation Xrotation Yrotation
                JOINT lPinky2
                {
                  OFFSET 1.82734 -0.647385 -0.700984
                  CHANNELS 3 Zrotation Xrotation Yrotation
                  End Site
                  {
                    OFFSET 1.69225 -0.51767 -0.607171
                  }
                }
              }
            }
          }
        }
      }
    }
  }
  JOINT rButtock
  {
    OFFSET -8.77824 4.35084 1.2192
    CHANNELS 3 Zrotation Xrotation Yrotation
    JOINT rThigh
    {
      OFFSET 0 -1.70687 -2.19456
      CHANNELS 3 Zrotation Xrotation Yrotation
      JOINT rShin
      {
        OFFSET 0 -36.8199 0.73152
        CHANNELS 3 Zrotation Xrotation Yrotation
        JOINT rFoot
        {
          OFFSET 0.73152 -45.1104 -5.12064
          CHANNELS 3 Zrotation Xrotation Yrotation
          End Site
          {
            OFFSET -1.1221 -3.69964 12.103
          }
        }
      }
    }
  }
  JOINT lButtock
  {
    OFFSET 8.77824 4.35084 1.2192
    CHANNELS 3 Zrotation Xrotation Yrotation
    JOINT lThigh
    {
      OFFSET 0 -1.70687 -2.19456
      CHANNELS 3 Zrotation Xrotation Yrotation
      JOINT lShin
      {
        OFFSET 0 -36.8199 0.73152
        CHANNELS 3 Zrotation Xrotation Yrotation
        JOINT lFoot
        {
          OFFSET -0.73152 -45.1104 -5.12064
          CHANNELS 3 Zrotation Xrotation Yrotation
          End Site
          {
            OFFSET 1.1221 -3.69964 12.103
          }
        }
      }
    }
  }
}
MOTION
Frames:	4
Frame Time:	0.03333
62.880100000000006 61.799099999999996 -3.4527 -161.340001 -12.434031 -174.470135 2.154831 21.536027 168.676815 -13.941674 4.135914 -173.171916 -10.582762 24.270038 -30.344929 32.824425 -21.638856 -18.59006 0.002111 -0.0 -0.00096 0.002111 -0.0 -0.00096 -12.891289 41.039425 14.66629 97.372266 -56.986582 43.489346 -11.065548 5.351152 93.711559 -4.178956 -4.163713 -2.308074 0.00224 -0.002009 -0.000693 150.71196 -82.84195 76.550173 -3.24744 5.076808 1.93112 -1.19531 16.074814 3.58566 -165.490666 -22.030325 144.947714 129.313496 -76.807387 98.54559 -145.122043 0.532549 -179.294873 12.074237 46.762682 -3.593119 -163.844414 74.928559 -150.439779 18.481684 52.792789 7.222715 134.14292 -84.248708 157.05656 -114.805977 38.949672 107.833234 5.939439 5.165735 -91.919208 6.180276 -7.502771 3.255687 169.312228 -6.994331 -89.920836 -5.20303 -55.533062 -11.781687 0.381137 0.615191 -0.216121 -4.061834 10.262285 -1.618929 149.563235 21.842356 -136.097728 144.456804 36.666839 -131.494086 145.113192 -0.450398 178.985251 3.304152 -56.479473 24.211664 164.345306 75.772964 150.23919 -22.548619 62.451407 -6.641563 0.010983 -1e-06 0.006161 -36.19139 -41.932633 40.997592 63.824973 29.744424 -132.453668 134.279571 5.967062 -69.748707 0.001469 0.000315 0.002555 54.045817 -52.003669 -122.458234 -69.933474 -76.071044 13.846565 58.341671 -47.025537 127.006387
63.580099999999995 60.6633 -3.6606 -161.698589 -13.003247 -174.487877 2.647584 20.80128 160.984659 -14.59774 2.127983 -165.673403 -14.534125 31.572737 -75.247066 46.207666 7.169954 17.929746 0.001295 -0.0 -0.003962 0.001295 -0.0 -0.003962 -158.813003 -59.076522 173.174954 -32.894697 -10.222824 -22.846474 100.93329 -34.976185 -44.387273 -160.16745 43.773075 133.169209 -2.422269 2.374839 0.420924 20.201279 -29.815515 -12.377069 1.432265 -2.359882 -0.790077 176.999306 -39.722376 103.901971 -167.833609 -29.432161 145.315338 18.732544 -43.233759 0.539088 -145.122082 1.601053 -179.629926 -151.107054 -32.300621 -173.743097 -136.248046 -11.021917 -133.587117 12.61273 29.049906 4.5782 10.31828 36.248524 -11.918787 113.58269 -19.999883 -145.006152 -1.283853 -20.065144 126.142949 176.536679 -5.429198 -143.01552 127.751186 27.194136 -75.737416 4.705221 -29.124721 -24.249971 -82.393761 -74.866157 -34.383053 10.242687 35.712857 -8.168121 25.671922 44.537689 -20.292809 158.67012 8.159206 -141.426835 0.181876 -6.852626 2.168553 155.041278 -3.947051 -172.367858 162.274527 71.879953 150.924362 -178.905952 78.433823 137.019104 -179.992899 75.750659 -0.006081 154.222105 26.856767 -96.510437 -73.699982 -17.552251 -110.348361 37.042072 29.255994 -126.557099 -5.3e-05 5.7e-05 -7e-05 53.311384 -53.381805 153.595908 85.097092 -32.912647 -20.424188 -103.967845 42.870263 -5.244913
64.532 59.388600000000004 -3.6799 -162.316334 -13.479646 -174.463352 4.334306 24.567873 -15.105676 14.188394 -7.842001 11.044345 8.804596 31.915936 99.211246 -43.021455 12.269438 -153.388047 0.001272 -0.0 -0.001779 0.001272 -0.0 -0.001779 -152.631937 11.933796 158.159664 -72.611408 41.808157 47.20986 5.854212 -80.613193 -127.988937 176.505434 -13.436939 143.462116 31.302393 -29.142601 3.553171 -128.688332 3.118582 111.345794 -78.208624 42.986472 65.026123 -158.249181 0.102742 113.170929 -97.929361 59.690502 89.036637 -115.695517 58.499608 106.150386 -145.121295 2.115338 -179.791785 11.791678 30.92994 -5.48793 -1.704383 -4.2622 -1.583581 13.905709 38.986947 8.139138 6.943839 28.19791 -8.238168 9.436221 62.800085 -85.698195 -122.041089 81.476102 -112.475588 172.923534 5.77852 -141.588172 3.758259 3.664814 -0.694009 -0.220143 0.523338 -2.290512 -11.0028 -19.525167 4.799584 163.351155 -19.61262 -110.385592 171.105524 -39.03206 -145.266851 -2.80945 0.869508 -0.446747 145.111947 3.360427 -179.817009 150.691789 -34.796607 173.120815 59.703444 -51.186453 58.327451 81.729914 -53.546799 82.241278 179.999735 75.748254 0.000267 152.410596 28.648396 88.140457 62.650229 20.962806 -130.244898 125.757363 19.124185 -55.399213 0.011103 -0.000348 0.007803 54.542789 -53.823701 106.584496 85.457546 27.612814 -164.819641 30.516318 -19.224874 86.784223
65.333 57.7639 -3.6832999999999996 -163.135002 -13.717273 -174.184883 3.730638 19.147486 -173.216498 -10.818191 7.953064 168.397037 -5.538911 41.661684 -155.983992 19.981978 51.980149 90.146834 -0.001938 0.0 -0.005321 -0.001938 0.0 -0.005321 -140.241345 43.892892 144.495961 72.639958 -41.390786 87.099556 -177.211281 80.945371 47.54759 176.654279 -12.135654 143.51508 -173.299259 -10.972167 89.910389 -13.394234 -46.348121 3.252761 -81.297819 42.665163 67.803566 -128.43691 36.64322 97.562176 2.394875 -7.214621 -1.21735 -6.379015 24.282052 5.356303 0.004632 0.663305 0.209371 9.926679 4.587703 0.525907 -155.120733 48.880042 -149.473951 -147.37445 9.324243 -141.342168 -4.279036 -48.708187 9.488584 108.614851 -15.145343 134.017065 59.137921 31.983129 93.268756 -165.533707 -53.467105 -139.670465 74.514523 38.522348 -39.91728 -15.206045 -20.808887 -20.464144 132.145524 13.662497 -110.636199 -37.502214 -48.455526 2.152841 18.374785 36.908784 -13.821083 167.414309 -17.998143 -144.204863 145.115848 -0.332141 179.022584 37.026643 -75.265311 58.396121 143.438923 6.791364 140.26968 -5.849007 9.191818 -0.571692 0.002788 -0.00045 0.00107 -29.511791 -40.925644 -177.51589 -44.199137 -55.121484 -175.27888 45.864198 -39.024671 -43.276532 179.861625 75.750059 0.108724 -150.865026 6.121709 37.691256 87.208185 31.997342 -31.013427 148.732886 -39.063253 41.523055
